<svg width="472" height="210" viewBox="0 0 472 210" fill="none" xmlns="http://www.w3.org/2000/svg">
<path fill-rule="evenodd" clip-rule="evenodd" d="M0.705139 65.6679V98.4814H96.6892C107.846 98.4814 122.1 88.1652 122.1 71.0996C122.1 64.236 124.725 59.7588 116.657 50.68L104.38 36.1331C97.3455 29.5704 105.221 29.5704 111.13 29.5704H151.655V98.4814H183.794V29.5704H227.111V0.059021H86.8451C69.7795 0.059021 61.4348 16.445 61.9043 24.9765C62.3764 33.508 63.9457 44.2418 78.1269 57.1364C91.0629 68.8948 71.7224 65.6679 69.7795 65.6679H0.705139ZM298.177 0.059021H246.329L217.264 98.484H249.611L254.858 84.7023H288.984L294.05 98.484H325.735L298.177 0.059021ZM262.08 61.074L273.236 24.9765L283.739 61.074H262.08ZM428.121 65.6679C415.652 65.6679 415.652 61.074 415.652 61.074C426.337 61.074 435.81 45.5077 435.81 29.5704C435.81 13.6332 420.246 0.059021 407.772 0.059021H338.018V98.484H373.461V65.6705C373.461 65.6705 388.553 83.3898 396.428 90.6087C404.306 97.8277 404.96 98.484 415.649 98.484H471.287V65.6705C471.292 65.6679 440.59 65.6679 428.121 65.6679ZM395.961 42.6984H373.467V24.9765H395.961C406.275 24.9765 408.06 42.6984 395.961 42.6984ZM0.705139 110.951H36.966L46.1538 143.769L54.6853 110.951H92.7516L102.596 143.769L112.442 110.951H143.943L115.065 209.399H86.1889L73.5356 162.798L59.2792 209.399H29.747L0.705139 110.951ZM218.361 111.519H166.513L137.451 209.941H169.795L175.045 196.162H209.173L214.239 209.941H245.927L218.361 111.519ZM182.266 172.531L193.423 136.434L203.923 172.531H182.266ZM428.775 140.488C422.874 140.488 416.438 141.178 423.475 147.738L435.755 162.287C443.82 171.366 443.69 175.151 443.69 182.02C443.69 199.083 426.809 209.399 415.652 209.399L338.103 209.92C327.419 209.92 326.765 209.267 318.887 202.048C311.015 194.829 295.918 177.107 295.918 177.107V209.92H260.479V111.498H330.233C342.702 111.498 358.271 125.075 358.271 141.009C358.271 156.949 348.798 172.513 338.108 172.513C338.108 172.513 342.809 177.239 350.684 177.239C358.562 177.239 388.885 177.27 388.885 177.27C390.825 177.27 410.163 180.497 397.23 168.739C383.049 155.844 381.479 145.115 381.007 136.584C380.535 128.052 387.912 110.953 404.97 110.953H471.297V140.49L428.775 140.488ZM318.415 154.135H295.915V136.413H318.415C328.731 136.413 330.513 154.135 318.415 154.135Z" fill="white"/>
</svg>
